<svg xmlns="http://www.w3.org/2000/svg" width="36" height="36" viewBox="0 0 24 24" fill="currentColor" stroke-width="2" class="ai ai-BackspaceFill" data-darkreader-inline-fill="" style="--darkreader-inline-fill: currentColor;"><path fill-rule="evenodd" clip-rule="evenodd" d="M6.6 4.2A3 3 0 0 1 9 3h11a3 3 0 0 1 3 3v12a3 3 0 0 1-3 3H9a3 3 0 0 1-2.4-1.2l-4.5-6a3 3 0 0 1 0-3.6l4.5-6zm11.107 5.507a1 1 0 0 0-1.414-1.414L14 10.586l-2.293-2.293a1 1 0 1 0-1.414 1.414L12.586 12l-2.293 2.293a1 1 0 0 0 1.414 1.414L14 13.414l2.293 2.293a1 1 0 0 0 1.414-1.414L15.414 12l2.293-2.293z"/></svg>
