<svg xmlns="http://www.w3.org/2000/svg" fill="none" viewBox="0 0 48 48" height="48" width="48"><g id="clean-broom-wipe"><path id="Union" fill="#000" fill-rule="evenodd" d="M21.493 20.43c1.362 -4.994 2.731 -10.015 3.848 -15.078 0.244 -1.105 -0.021 -2.46 -1.315 -2.94a8.505 8.505 0 0 0 -0.761 -0.24 8.506 8.506 0 0 0 -0.78 -0.173c-1.36 -0.23 -2.267 0.81 -2.608 1.89 -1.57 4.961 -2.9 10.014 -4.222 15.04l-0.02 0.073c0.073 -0.002 0.146 -0.002 0.219 -0.002 2.143 0 4.03 0.529 5.639 1.43ZM27 28a2 2 0 0 1 2 -2h10a2 2 0 1 1 0 4H29a2 2 0 0 1 -2 -2Zm5 6a2 2 0 1 0 0 4h10a2 2 0 1 0 0 -4H32Zm3 8a2 2 0 1 0 0 4h10a2 2 0 1 0 0 -4H35ZM15.854 21.5c-6.044 0 -10.64 4.526 -12.119 10.068 -0.885 3.32 -1.764 7.237 -2.096 10.722 -0.223 2.343 1.512 4.274 3.736 4.534 1.042 0.122 2.348 0.259 3.809 0.377 -1.705 -3.667 -1.818 -7.556 -1.602 -9.377a1.5 1.5 0 0 1 2.979 0.352c-0.204 1.726 -0.004 5.909 2.164 9.249 1.07 0.047 2.172 0.075 3.275 0.075 1.1 0 2.254 -0.028 3.412 -0.075 -1.139 -1.627 -1.822 -3.393 -2.234 -4.905a20.107 20.107 0 0 1 -0.592 -3.16 16.987 16.987 0 0 1 -0.084 -1.243l-0.002 -0.08 0 -0.024 0 -0.008 0 -0.004V38a1.501 1.501 0 0 1 3 -0.002l0 0.007 0 0.037 0 0.008 0.008 0.202c0.009 0.182 0.026 0.454 0.062 0.795 0.072 0.684 0.216 1.633 0.502 2.683 0.513 1.882 1.447 3.959 3.116 5.486 0.848 -0.058 1.668 -0.12 2.437 -0.184 3.54 -0.293 4.951 -4.55 2.481 -6.974L27 38.973a5.505 5.505 0 0 1 -1.647 -4.051l0.057 -2.57c0.121 -5.481 -3.587 -10.852 -9.556 -10.852Z" clip-rule="evenodd" stroke-width="1"></path></g></svg>
