<?xml version="1.0" encoding="utf-8"?>
<svg viewBox="0 0 24 24" fill="none" color="#000000" stroke-width="1.5" xmlns="http://www.w3.org/2000/svg">
  <g>
    <path fill-rule="evenodd" clip-rule="evenodd" d="M 24 18.154 C 24 21.382 21.382 24 18.154 24 L 5.846 24 C 2.618 24 0 21.382 0 18.154 L 0 5.846 C 0 2.618 2.618 0 5.846 0 L 18.154 0 C 21.382 0 24 2.618 24 5.846 L 24 18.154 Z" style="transform-origin: 12px 12px; fill: rgb(8, 127, 140);"/>
  </g>
  <path d="M 8.172 19.939 Q 7.402 19.939 7.402 19.125 L 7.402 5.353 Q 7.402 4.539 8.172 4.539 L 15.96 4.539 Q 16.532 4.539 16.532 5.485 L 16.532 6.057 Q 16.532 7.003 15.96 7.003 L 10.328 7.003 L 10.328 10.831 L 15.366 10.831 Q 15.916 10.831 15.916 11.777 L 15.916 12.349 Q 15.916 13.295 15.366 13.295 L 10.328 13.295 L 10.328 17.475 L 15.982 17.475 Q 16.554 17.475 16.554 18.421 L 16.554 18.993 Q 16.554 19.939 15.982 19.939 Z" style="fill: rgb(255, 255, 255);"/>
</svg>
