<svg xmlns="http://www.w3.org/2000/svg" width="36" height="36" viewBox="0 0 24 24" fill="none" stroke="currentColor" stroke-width="2" stroke-linecap="round" stroke-linejoin="round" class="ai ai-Newspaper" data-darkreader-inline-stroke="" style="--darkreader-inline-stroke: currentColor;"><path d="M5 21h12a4 4 0 0 0 4-4V5a2 2 0 0 0-2-2H9a2 2 0 0 0-2 2v13c0 1.657-.343 3-2 3z"/><path d="M3 10a2 2 0 0 1 2-2h2v10.5c0 1.38-.62 2.5-2 2.5s-2-1.12-2-2.5V10z"/><circle cx="12" cy="8" r="1"/><path d="M11 14h6"/><path d="M11 17h3"/></svg>
