<?xml version="1.0" encoding="utf-8"?>
<svg viewBox="0 0 24 24" fill="none" color="#000000" stroke-width="1.5" xmlns="http://www.w3.org/2000/svg">
  <g>
    <path fill-rule="evenodd" clip-rule="evenodd" d="M 24 18.154 C 24 21.382 21.382 24 18.154 24 L 5.846 24 C 2.618 24 0 21.382 0 18.154 L 0 5.846 C 0 2.618 2.618 0 5.846 0 L 18.154 0 C 21.382 0 24 2.618 24 5.846 L 24 18.154 Z" style="transform-origin: 12px 12px; fill: rgb(29, 132, 236);"/>
  </g>
  <path d="M 11.472 19.983 Q 10.878 19.983 10.603 19.818 Q 10.328 19.653 10.328 19.345 L 10.328 7.003 L 6.566 7.003 Q 5.994 7.003 5.994 6.057 L 5.994 5.485 Q 5.994 4.539 6.566 4.539 L 16.95 4.539 Q 17.544 4.539 17.544 5.485 L 17.544 6.057 Q 17.544 7.003 16.95 7.003 L 13.232 7.003 L 13.232 19.345 Q 13.232 19.653 12.968 19.818 Q 12.704 19.983 12.088 19.983 Z" style="fill: rgb(255, 255, 255);"/>
</svg>
